<svg xmlns="http://www.w3.org/2000/svg" width="17" height="17" fill="none" viewBox="0 0 17 17">
    <circle cx="8.5" cy="8.5" r="8.5" fill="#F9FAFC"/>
    <path fill="#84CEDF" d="M14.733 6.233c0 .624-.51 1.134-1.133 1.134a.963.963 0 0 1-.289-.04l-2.017 2.012a1.137 1.137 0 0 1-1.094 1.428 1.137 1.137 0 0 1-1.094-1.428L7.661 7.894c-.09.028-.192.04-.294.04-.102 0-.204-.012-.295-.04l-2.578 2.584c.028.09.04.187.04.289 0 .623-.51 1.133-1.134 1.133-.623 0-1.133-.51-1.133-1.133 0-.624.51-1.134 1.133-1.134.102 0 .198.012.289.04l2.584-2.578a1.137 1.137 0 0 1 1.094-1.428A1.137 1.137 0 0 1 8.46 7.095L9.905 8.54a1 1 0 0 1 .295-.04c.102 0 .204.011.295.04l2.011-2.018a.961.961 0 0 1-.04-.289c0-.623.51-1.133 1.134-1.133.623 0 1.133.51 1.133 1.133z"/>
</svg>
