<?xml version="1.0" standalone="no"?>
<!DOCTYPE svg PUBLIC "-//W3C//DTD SVG 20010904//EN"
 "http://www.w3.org/TR/2001/REC-SVG-20010904/DTD/svg10.dtd">
<svg version="1.0" xmlns="http://www.w3.org/2000/svg"
 width="107.000000pt" height="107.000000pt" viewBox="0 0 107.000000 107.000000"
 preserveAspectRatio="xMidYMid meet">
<metadata>
Created by potrace 1.11, written by Peter Selinger 2001-2013
</metadata>
<g transform="translate(0.000000,107.000000) scale(0.100000,-0.100000)"
fill="#000000" stroke="none">
<path d="M85 1047 c-22 -12 -50 -40 -62 -62 -23 -40 -23 -42 -22 -455 l0 -415
28 -40 c48 -71 38 -70 503 -72 410 -3 418 -2 453 19 20 11 47 37 60 57 l23 36
1 408 c1 383 0 411 -18 452 -12 27 -33 53 -58 68 l-38 25 -415 1 c-413 1 -415
1 -455 -22z"/>
</g>
</svg>
