<svg xmlns="http://www.w3.org/2000/svg" width="17" height="17" fill="none" viewBox="0 0 17 17">
    <circle cx="8.5" cy="8.5" r="8.5" fill="#F9FAFC"/>
    <g clip-path="url(#a)">
        <path fill="#84CED4" d="M10.918 7.642c.862 0 1.553-.71 1.553-1.588 0-.878-.69-1.588-1.553-1.588-.862 0-1.559.71-1.559 1.588 0 .878.697 1.588 1.559 1.588zm-4.156 0c.863 0 1.553-.71 1.553-1.588 0-.878-.69-1.588-1.553-1.588-.862 0-1.558.71-1.558 1.588 0 .878.696 1.588 1.558 1.588zm0 1.058c-1.21 0-3.636.62-3.636 1.852v1.323h7.272v-1.323c0-1.233-2.425-1.852-3.636-1.852zm4.156 0c-.15 0-.322.01-.504.026.603.445 1.023 1.043 1.023 1.826v1.323h3.117v-1.323c0-1.233-2.426-1.852-3.636-1.852z"/>
    </g>
    <defs>
        <clipPath id="a">
            <path fill="#fff" d="M0 0h36.667v36.667H0z" transform="matrix(.34 0 0 .34 2.607 1.587)"/>
        </clipPath>
    </defs>
</svg>
